<?xml version="1.0" encoding="UTF-8"?>
<svg id="Layer_2" data-name="Layer 2" xmlns="http://www.w3.org/2000/svg" viewBox="0 0 500.1 492.73">
  <defs>
    <style>
      .cls-1 {
        fill: #393939;
        stroke-width: 0px;
      }
    </style>
  </defs>
  <g id="Layer_1-2" data-name="Layer 1">
    <g>
      <path class="cls-1" d="m407.97,159.72c.42,29.81-26.56,53.94-55.69,53.21-28.75-.72-52.56-25.38-52.05-54.36.53-30.25,25.03-53.46,55.85-52.91,28.49.51,52.36,25.37,51.89,54.06Z"/>
      <path class="cls-1" d="m495.05,197.1c-19.17-83.65-69.01-142.41-147.09-177.02C299.77-1.28,249.43-4.82,197.95,5.78c-37.01,7.62-70.37,23.31-100.43,45.97-23.25,17.53-42.29,39.01-58.28,63.38C14.86,152.29,1.94,193.02.19,237.32c-.82,20.74,1.09,41.29,5.27,61.64,11.66,56.76,40.71,102.98,85.6,139.08,30.18,24.27,64.64,40.41,102.41,49.2,9.29,2.16,18.75,3.59,28.9,5.49-4.77-9.89-9.15-18.7-13.29-27.62-10.13-21.83-18.67-44.2-19.79-68.58-1.02-22.1,4.59-41.95,21.18-57.7,9.94-9.44,21.6-16.22,34.53-20.15,21.38-6.5,43.03-12.11,64.62-17.9,9.19-2.47,18.52-4.47,28.23-6.79-.94-1.79-1.59-3.06-2.27-4.31-15.55-28.7-31.21-57.35-46.64-86.12-11.42-21.29-14.53-43.66-6.33-66.71,11.99-33.74,48.53-54.94,83.87-48.6,28.69,5.15,49.1,21.38,59.19,48.85,8.33,22.68,4.85,45.01-6.28,66.05-20.44,38.65-41.2,77.12-61.85,115.65-1.03,1.92-2.23,3.73-3.5,5.84-2.64-4.74-5.04-8.97-7.35-13.24-.98-1.81-2.14-2.22-4.17-1.58-9.03,2.85-18.1,5.57-27.18,8.25-14.76,4.36-29.65,8.33-43.27,15.85-19.46,10.73-27.25,26.04-23.94,47.84,1.92,12.61,7.61,23.78,14.05,34.55,14.93,24.98,35.03,45.74,55.05,66.53.86.89,3.14,1.17,4.44.75,25.03-8.14,48.81-18.98,70.92-33.32,8.01-5.19,15.74-10.81,23.84-16.4-1.44-1.31-2.23-2-2.98-2.72-14.27-13.84-28.72-27.51-42.69-41.64-4.28-4.33-7.79-9.67-10.7-15.07-6.67-12.37-2.93-23.46,9.27-30.41,3.33-1.9,5.64-2.14,8.52.81,3.39,3.47,7.34,6.4,11.08,9.52,19.03,15.84,38.07,31.67,57.85,48.11,6.46-9.58,13.05-18.47,18.7-27.92,18.25-30.48,28.61-63.64,32.69-98.88,3.06-26.38,2.8-52.73-3.13-78.57ZM109.02,414.09c-4.28-2.77-8.89-5.66-13.35-8.77-.59-.41-.87-2.2-.49-2.94,5.83-11.63,11.8-23.19,17.72-34.78,1-1.95,2.16-2.64,4.38-1.45,2.74,1.47,5.71,2.51,8.31,3.61-5.54,14.82-10.96,29.31-16.58,44.33Zm34.24-68.76c-4.04-1.83-7.33-3.33-11.4-5.17,3.39-3.08,6.37-5.93,9.52-8.58,2.4-2.03,4.99-3.85,7.55-5.69,5.66-4.09,6.99-4.03,11.66-.49-5.71,6.57-11.56,13.31-17.32,19.94Zm169.12-75.44c2.06,3.9,4.11,7.82,6.07,11.55-23.7-6.07-47.23-12.04-70.72-18.14-27.77-7.21-55.79-12.09-84.68-10.76-11.97.55-23.98.09-35.97.1-30.97,0-61.93.02-92.9.02-1.3,0-2.59,0-4.33,0-.43-21.58,2.76-42.3,8.67-63.68,12,11.2,23.39,21.83,35.16,32.82,14.46-13.3,28.87-26.54,43.61-40.09,5.82,5.43,11.65,10.85,17.71,16.5,23.51-21.55,46.88-42.96,70.6-64.7,1.88,1.61,3.8,3.14,5.59,4.81,20.41,19.06,40.81,38.13,61.18,57.23.93.88,1.7,2,2.31,3.14,12.6,23.72,25.16,47.46,37.72,71.2Zm82.26-184.04c-25.75-12.18-51.87-13.48-77.7-1.22-25.62,12.15-41.9,32.38-48.18,60.58-10.55-9.69-20.78-19.12-31.06-28.51-10.29-9.4-20.63-18.75-31.32-28.46-24,21.48-47.79,42.78-71.67,64.16-5.84-5.38-11.55-10.63-17.67-16.27-14.56,13.5-29.01,26.9-43.81,40.63-6.85-6.34-13.73-12.58-20.41-19.04-.65-.63-.53-2.83.04-3.82,6.55-11.22,12.45-22.94,20.07-33.39,35.34-48.46,82.84-77.92,142-87.7,55.62-9.2,107.35,1.9,154.68,32.59,8.99,5.83,17.29,12.73,25.91,19.13-.29.44-.59.87-.88,1.31Z"/>
    </g>
  </g>
</svg>